<svg width="30" height="30" viewBox="0 0 30 30" fill="none" xmlns="http://www.w3.org/2000/svg">
<path d="M15 26.25C12.5625 26.25 10.4948 25.401 8.79688 23.7031C7.09896 22.0052 6.25 19.9375 6.25 17.5C6.25 15.4167 6.89062 13.5781 8.17188 11.9844C9.45312 10.3906 11.1042 9.37499 13.125 8.93749C12.5833 8.83332 12.0625 8.68228 11.5625 8.48437C11.0625 8.28645 10.6146 7.98957 10.2188 7.59374C9.63542 6.98957 9.24479 6.29166 9.04688 5.49999C8.84896 4.70832 8.75 3.89582 8.75 3.06249V2.49999C10.5417 2.45832 12.0833 3.04687 13.375 4.26562C14.6667 5.48437 15.3021 6.97916 15.2812 8.74999C15.5729 7.85416 15.9844 7.02082 16.5156 6.24999C17.0469 5.47916 17.6458 4.76041 18.3125 4.09374C18.5 3.90624 18.7188 3.81249 18.9688 3.81249C19.2188 3.81249 19.4375 3.90624 19.625 4.09374C19.8125 4.28124 19.9062 4.49999 19.9062 4.74999C19.9062 4.99999 19.8125 5.21874 19.625 5.40624C19.1042 5.92707 18.6354 6.48957 18.2188 7.09374C17.8021 7.69791 17.4479 8.33332 17.1562 8.99999C19.1146 9.49999 20.7031 10.5364 21.9219 12.1094C23.1406 13.6823 23.75 15.4792 23.75 17.5C23.75 19.9375 22.901 22.0052 21.2031 23.7031C19.5052 25.401 17.4375 26.25 15 26.25ZM15 24.375C16.9167 24.375 18.5417 23.7083 19.875 22.375C21.2083 21.0417 21.875 19.4167 21.875 17.5C21.875 15.5833 21.2083 13.9583 19.875 12.625C18.5417 11.2917 16.9167 10.625 15 10.625C13.0833 10.625 11.4583 11.2917 10.125 12.625C8.79167 13.9583 8.125 15.5833 8.125 17.5C8.125 19.4167 8.79167 21.0417 10.125 22.375C11.4583 23.7083 13.0833 24.375 15 24.375Z" fill="#FFEF5B"/>
</svg>
